{"title":"House.Of.Cards.2013.S04E11.WEBRip.x264-TURBO","uid":13755069,"size":178342767,"categoryP":"video","categoryS":"tv_shows","magnet":"?xt=urn:btih:bcb833c8436cfa5963e7efdf59795b1772e5f85d&amp;dn=House.Of.Cards.2013.S04E11.WEBRip.x264-TURBO&amp;tr=udp%3A%2F%2Ftracker.leechers-paradise.org%3A6969&amp;tr=udp%3A%2F%2Fzer0day.ch%3A1337&amp;tr=udp%3A%2F%2Fopen.demonii.com%3A1337&amp;tr=udp%3A%2F%2Ftracker.coppersurfer.tk%3A6969&amp;tr=udp%3A%2F%2Fexodus.desync.com%3A6969","seeders":10,"leechers":1,"uploader":"Cybotage","files":2,"time":1457187577,"description":"Mediainfo :\r\n\r\nVideo\r\nID : 1\r\nFormat : AVC\r\nFormat/Info : Advanced Video Codec\r\nFormat profile :   \r\nFormat settings, CABAC : Yes\r\nFormat settings, ReFrames : 8 frames\r\nCodec ID : avc1\r\nCodec ID/Info : Advanced Video Coding\r\nDuration : 51mn 15s\r\nBit rate : 398 Kbps\r\nMaximum bit rate : 2 772 Kbps\r\nWidth : 720 pixels\r\nHeight : 360 pixels\r\nDisplay aspect ratio : 2.000\r\nFrame rate mode : Constant\r\nFrame rate : 23.976 (24000/1001) fps\r\nColor space : YUV\r\nChroma subsampling : 4:2:0\r\nBit depth : 8 bits\r\nScan type : Progressive\r\nBits/(Pixel*Frame) : 0.064\r\nStream size : 146 MiB (86%)\r\nTitle : Chapter 50\r\nWriting library : x264 core 148 r2665 a01e339\r\nEncoding settings : cabac=1 / ref=8 / deblock=1:0:0 / analyse=0x3:0x133 / me=umh / subme=9 / psy=1 / psy_rd=1.00:0.00 / mixed_ref=1 / me_range=16 / chroma_me=1 / trellis=2 / 8x8dct=1 / cqm=0 / deadzone=21,11 / fast_pskip=1 / chroma_qp_offset=-2 / threads=11 / lookahead_threads=1 / sliced_threads=0 / nr=0 / decimate=1 / interlaced=0 / bluray_compat=0 / constrained_intra=0 / bframes=3 / b_pyramid=2 / b_adapt=2 / b_bias=0 / direct=3 / weightb=1 / open_gop=0 / weightp=2 / keyint=240 / keyint_min=24 / scenecut=40 / intra_refresh=0 / rc_lookahead=60 / rc=crf / mbtree=1 / crf=19.0 / qcomp=0.60 / qpmin=0 / qpmax=69 / qpstep=4 / ip_ratio=1.40 / aq=1:1.00\r\nEncoded date : UTC 2016-03-05 12:50:31\r\nTagged date : UTC 2016-03-05 12:50:35\r\n\r\nAudio\r\nID : 2\r\nFormat : AAC\r\nFormat/Info : Advanced Audio Codec\r\nFormat profile : HE-AAC / LC\r\nCodec ID : 40\r\nDuration : 51mn 15s\r\nBit rate mode : Variable\r\nBit rate : 62.7 Kbps\r\nMaximum bit rate : 73.7 Kbps\r\nChannel(s) : 2 channels\r\nChannel positions : Front: L R\r\nSampling rate : 48.0 KHz / 24.0 KHz\r\nFrame rate : 23.438 fps (1024 spf)\r\nCompression mode : Lossy\r\nStream size : 23.0 MiB (14%)\r\nTitle : Chapter 50\r\nLanguage : English\r\nEncoded date : UTC 2016-03-05 12:50:34\r\nTagged date : UTC 2016-03-05 12:50:35\r\n\r\nText\r\nID : 3\r\nFormat : Timed Text\r\nCodec ID : tx3g\r\nDuration : 48mn 44s\r\nBit rate mode : Variable\r\nBit rate : 89 bps\r\nStream size : 31.8 KiB (0%)\r\nTitle : Chapter 50\r\nLanguage : English\r\nForced : No\r\nEncoded date : UTC 2016-03-05 12:50:35\r\nTagged date : UTC 2016-03-05 12:50:35","torrent":{"xt":"urn:btih:bcb833c8436cfa5963e7efdf59795b1772e5f85d","amp;dn":"House.Of.Cards.2013.S04E11.WEBRip.x264-TURBO","amp;tr":["udp%3A%2F%2Ftracker.leechers-paradise.org%3A6969","udp%3A%2F%2Fzer0day.ch%3A1337","udp%3A%2F%2Fopen.demonii.com%3A1337","udp%3A%2F%2Ftracker.coppersurfer.tk%3A6969","udp%3A%2F%2Fexodus.desync.com%3A6969"],"infoHash":"bcb833c8436cfa5963e7efdf59795b1772e5f85d","infoHashBuffer":{"type":"Buffer","data":[188,184,51,200,67,108,250,89,99,231,239,223,89,121,91,23,114,229,248,93]},"announce":[],"urlList":[]}}